<svg xmlns="http://www.w3.org/2000/svg" xmlns:xlink="http://www.w3.org/1999/xlink" width="125" height="22" viewBox="0 0 152 27" version="1.1">
    <!-- Generator: Sketch 52.6 (67491) - http://www.bohemiancoding.com/sketch -->
    <title>_GLOBALNAV-MOBILE</title>
    <defs>
        <polygon points="0 0.123340909 151.976476 0.123340909 151.976476 27 0 27"></polygon>
        <polygon points="0 0.123340909 151.976476 0.123340909 151.976476 27 0 27"></polygon>
        <polygon points="0 0.123340909 151.976476 0.123340909 151.976476 27 0 27"></polygon>
        <polyline points="0 0.123340909 151.976476 0.123340909 151.976476 27 0 27"></polyline>
    </defs>
    <g stroke="none" stroke-width="1" fill="none" fill-rule="evenodd">
        <g transform="translate(-84.000000, -31.000000)" fill="none">
            <g transform="translate(84.000000, 31.000000)" fill="none">
                <g fill="none">
                    <mask fill="#FFFFFF">
                        <use xlink:href="#path-1" fill="#FFFFFF"></use>
                    </mask>
                    <g fill="none"></g>
                    <path d="M0,1.57545 C0,1.20481364 0.331746032,0.867927273 0.696063492,0.867927273 L4.10942857,0.867927273 C4.51536508,0.867927273 4.80850794,1.20481364 4.80850794,1.57545 L4.80850794,11.4703364 L16.7706667,11.4703364 L16.7706667,1.57545 C16.7706667,1.20481364 17.0638095,0.867927273 17.469746,0.867927273 L20.8445079,0.867927273 C21.2106349,0.867927273 21.5435873,1.20481364 21.5435873,1.57545 L21.5435873,26.2908818 C21.5435873,26.6658136 21.2106349,27.0002455 20.8445079,27.0002455 L17.469746,27.0002455 C17.0638095,27.0002455 16.7706667,26.6658136 16.7706667,26.2908818 L16.7706667,15.9885409 L4.80850794,15.9885409 L4.80850794,26.2908818 C4.80850794,26.6658136 4.51536508,27.0002455 4.10942857,27.0002455 L0.696063492,27.0002455 C0.331746032,27.0002455 0,26.6658136 0,26.2908818 L0,1.57545 Z" fill="#263645" mask="url(#mask-2)"></path>
                    <mask fill="#FFFFFF">
                        <use xlink:href="#path-3" fill="#FFFFFF"></use>
                    </mask>
                    <g fill="none"></g>
                    <path d="M41.3964159,18.0822068 L37.7254952,9.86438864 L37.6151143,9.86438864 L34.0189873,18.0822068 L41.3964159,18.0822068 Z M25.5425746,26.0337068 L36.9540349,0.904070455 C37.0638127,0.681320455 37.2495905,0.494161364 37.5765111,0.494161364 L37.945654,0.494161364 C38.3129873,0.494161364 38.4583524,0.681320455 38.5681302,0.904070455 L49.8692095,26.0337068 C50.0935905,26.516025 49.8040667,27.0001841 49.2467333,27.0001841 L46.0529238,27.0001841 C45.5058444,27.0001841 45.2482889,26.7774341 44.9901302,26.2546159 L43.1938762,22.2236386 L32.221527,22.2236386 L30.4222571,26.2546159 C30.2756857,26.6295477 29.9439397,27.0001841 29.3594635,27.0001841 L26.165654,27.0001841 C25.6143524,27.0001841 25.323019,26.516025 25.5425746,26.0337068 L25.5425746,26.0337068 Z" fill="#263645" mask="url(#mask-4)"></path>
                    <path d="M64.6613429,12.7745591 C66.6047714,12.7745591 68.2948667,11.0606727 68.2948667,8.97062727 C68.2948667,6.99042273 66.6047714,5.34465 64.6613429,5.34465 L58.6796603,5.34465 L58.6796603,12.7745591 L64.6613429,12.7745591 Z M53.8717556,1.57569545 C53.8717556,1.20505909 54.1648984,0.867559091 54.5702317,0.867559091 L65.062454,0.867559091 C69.4680413,0.867559091 73.0671841,4.45119545 73.0671841,8.89453636 C73.0671841,12.3315136 70.8239778,15.1284682 67.6331841,16.4361273 L72.6618508,25.91865 C72.9163905,26.4071045 72.6618508,26.9998773 72.0387714,26.9998773 L68.1850889,26.9998773 C67.8533429,26.9998773 67.6693746,26.8170136 67.5963905,26.6660591 L62.7167079,16.7705591 L58.644073,16.7705591 L58.644073,26.2905136 C58.644073,26.6660591 58.3081048,26.9998773 57.9474063,26.9998773 L54.5702317,26.9998773 C54.1648984,26.9998773 53.8717556,26.6660591 53.8717556,26.2905136 L53.8717556,1.57569545 Z" fill="#263645" mask="url(#mask-4)"></path>
                    <path d="M88.9850222,12.7745591 C90.9296571,12.7745591 92.618546,11.0606727 92.618546,8.97062727 C92.618546,6.99042273 90.9296571,5.34465 88.9850222,5.34465 L83.0039429,5.34465 L83.0039429,12.7745591 L88.9850222,12.7745591 Z M78.1996571,1.57569545 C78.1996571,1.20505909 78.4885778,0.867559091 78.8939111,0.867559091 L89.3909587,0.867559091 C93.7917206,0.867559091 97.3884508,4.45119545 97.3884508,8.89453636 C97.3884508,12.3315136 95.1494667,15.1284682 91.958673,16.4361273 L96.9855302,25.91865 C97.2436889,26.4071045 96.9855302,26.9998773 96.3618476,26.9998773 L92.5087683,26.9998773 C92.1788317,26.9998773 91.9954667,26.8170136 91.9230857,26.6660591 L87.0397841,16.7705591 L82.9695619,16.7705591 L82.9695619,26.2905136 C82.9695619,26.6660591 82.6390222,26.9998773 82.2704825,26.9998773 L78.8939111,26.9998773 C78.4885778,26.9998773 78.1996571,26.6660591 78.1996571,26.2905136 L78.1996571,1.57569545 Z" fill="#263645" mask="url(#mask-4)"></path>
                    <mask fill="#FFFFFF">
                        <use xlink:href="#path-5" fill="#FFFFFF"></use>
                    </mask>
                    <g fill="none"></g>
                    <path d="M108.305489,14.4201477 L99.9472984,1.947375 C99.6511397,1.46382955 99.9472984,0.867988636 100.531171,0.867988636 L104.266029,0.867988636 C104.565203,0.867988636 104.753394,1.05392045 104.860759,1.204875 L110.726029,9.79210227 L116.603362,1.204875 C116.71314,1.05392045 116.888663,0.867988636 117.19206,0.867988636 L120.966727,0.867988636 C121.556029,0.867988636 121.848568,1.46382955 121.556029,1.947375 L113.082632,14.3839432 L113.082632,26.2909432 C113.082632,26.665875 112.744854,27.0003068 112.38114,27.0003068 L109.007584,27.0003068 C108.60587,27.0003068 108.305489,26.665875 108.305489,26.2909432 L108.305489,14.4201477 Z" fill="#263645" mask="url(#mask-6)"></path>
                    <mask fill="#FFFFFF">
                        <use xlink:href="#path-7" fill="#FFFFFF"></use>
                    </mask>
                    <g fill="none"></g>
                    <path d="M135.280483,22.9660773 L136.597816,20.6532818 C136.890356,20.1286227 137.516451,20.1286227 137.851213,20.3949409 C138.029752,20.5023273 141.0028,22.7089636 143.387149,22.7089636 C145.298006,22.7089636 146.72934,21.4418045 146.72934,19.8303955 C146.72934,17.92935 145.146006,16.6272136 142.06861,15.3502364 C138.617848,13.9315091 135.170102,11.6941909 135.170102,7.29135 C135.170102,3.96666818 137.588832,0.123463636 143.426356,0.123463636 C147.167244,0.123463636 150.028705,2.06378182 150.763371,2.62403182 C151.133721,2.84739545 151.237467,3.48435 150.98353,3.85498636 L149.594419,5.98307727 C149.298863,6.42612273 148.742737,6.72741818 148.306038,6.42612273 C148.012895,6.24325909 145.222006,4.37841818 143.209213,4.37841818 C141.116197,4.37841818 139.9768,5.79837273 139.9768,6.99066818 C139.9768,8.74812273 141.332737,9.93857727 144.306387,11.1695318 C147.863911,12.6293727 151.976959,14.7936682 151.976959,19.6094864 C151.976959,23.4533045 148.708959,27.0001227 143.531911,27.0001227 C138.913403,27.0001227 136.198514,24.7977818 135.46626,24.0914864 C135.131498,23.7509182 134.948737,23.5668273 135.280483,22.9660773" fill="#263645" mask="url(#mask-8)"></path>
                    <path d="M128.087143,0.867681818 C126.140095,0.867681818 124.623111,2.41220455 124.623111,4.39179545 C124.623111,6.2505 125.982063,7.71034091 127.715587,7.71034091 C127.976762,7.71034091 128.376667,7.68763636 128.760286,7.57718182 C128.763905,7.6275 128.763905,7.67229545 128.763905,7.72568182 C128.763905,9.76479545 127.18781,10.4391818 126.98273,10.45575 C126.759556,10.45575 126.57981,10.4937955 126.435651,10.5582273 C126.192571,10.6827955 126.058063,10.9061591 126.058063,11.1602045 C126.058063,11.5541591 126.418762,11.8928864 126.847016,11.8928864 C129.648159,11.8928864 132.016825,8.98670455 132.016825,5.54727273 C132.016825,2.47540909 130.040825,0.867681818 128.087143,0.867681818" fill="#263645" mask="url(#mask-8)"></path>
                </g>
            </g>
        </g>
    </g>
</svg>