<svg xmlns:xlink="http://www.w3.org/1999/xlink" xmlns="http://www.w3.org/2000/svg" class="icon QuickLearnIcon-sc-1ctqu11-6 jIWiiw" viewBox="0 0 15 15" width="15"  height="15" ><defs><symbol xmlns="http://www.w3.org/2000/svg" viewBox="0 0 15 15" id="magnifying-glass"><path d="M11.207 10.171a6.28 6.28 0 0 0 1.35-3.887C12.557 2.825 9.738 0 6.27 0S0 2.825 0 6.284c0 3.46 2.819 6.284 6.27 6.284a6.32 6.32 0 0 0 3.878-1.352L13.924 15 15 13.921l-3.793-3.75zm-4.937.908c-2.614 0-4.75-2.14-4.75-4.76 0-2.62 2.136-4.76 4.75-4.76s4.75 2.14 4.75 4.76c0 2.62-2.136 4.76-4.75 4.76z"></path></symbol></defs><use aria-hidden="true" xlink:href="#magnifying-glass" fill="#025F9C"></use></svg>