<svg xmlns:xlink="http://www.w3.org/1999/xlink" xmlns="http://www.w3.org/2000/svg" class="icon nav-redesign--logo" viewBox="0 0 152 27" width="152"  height="27" ><defs><symbol xmlns="http://www.w3.org/2000/svg" viewBox="0 0 152 27" id="harrys-logo"><g fill="none" fill-rule="evenodd"><path d="M0 1.575c0-.37.332-.707.696-.707H4.11c.406 0 .7.337.7.707v9.895H16.77V1.575c0-.37.293-.707.699-.707h3.375c.366 0 .699.337.699.707v24.716c0 .375-.333.71-.7.71H17.47a.702.702 0 0 1-.7-.71V15.989H4.81V26.29c0 .375-.294.71-.7.71H.696C.332 27 0 26.665 0 26.29V1.575z" fill="#263645" mask="url(#mask-2)"></path><path d="M41.396 18.082l-3.67-8.218h-.11l-3.597 8.218h7.377zm-15.853 7.952L36.954.904c.11-.223.296-.41.623-.41h.369c.367 0 .512.187.622.41l11.301 25.13c.225.482-.065.966-.622.966h-3.194c-.547 0-.805-.223-1.063-.745l-1.796-4.031H32.222l-1.8 4.03c-.146.376-.478.746-1.063.746h-3.193c-.552 0-.843-.484-.623-.966zM64.661 12.775c1.944 0 3.634-1.714 3.634-3.804 0-1.98-1.69-3.626-3.634-3.626H58.68v7.43h5.981zm-10.79-11.2c0-.37.294-.707.7-.707h10.491c4.406 0 8.005 3.583 8.005 8.027 0 3.437-2.243 6.233-5.434 7.541l5.029 9.483c.254.488 0 1.08-.623 1.08h-3.854c-.332 0-.516-.182-.589-.333l-4.88-9.895h-4.072v9.52c0 .375-.336.709-.697.709H54.57a.702.702 0 0 1-.698-.71V1.577zM88.985 12.775c1.945 0 3.634-1.714 3.634-3.804 0-1.98-1.69-3.626-3.634-3.626h-5.981v7.43h5.981zM78.2 1.575a.7.7 0 0 1 .694-.707H89.39c4.4 0 7.997 3.583 7.997 8.027 0 3.437-2.239 6.233-5.43 7.541l5.028 9.483c.258.488 0 1.08-.624 1.08h-3.853c-.33 0-.514-.182-.586-.333l-4.883-9.895h-4.07v9.52c0 .375-.331.709-.7.709h-3.376a.698.698 0 0 1-.694-.71V1.577z" fill="#263645" mask="url(#mask-4)"></path><path d="M108.305 14.42L99.947 1.947c-.296-.483 0-1.079.584-1.079h3.735c.3 0 .487.186.595.337l5.865 8.587 5.877-8.587c.11-.151.286-.337.59-.337h3.774c.589 0 .882.596.589 1.08l-8.473 12.436V26.29c0 .375-.338.71-.702.71h-3.373a.707.707 0 0 1-.703-.71V14.42z" fill="#263645" mask="url(#mask-6)"></path><path d="M135.28 22.966l1.318-2.313c.292-.524.918-.524 1.253-.258.179.107 3.152 2.314 5.536 2.314 1.911 0 3.342-1.267 3.342-2.879 0-1.9-1.583-3.203-4.66-4.48-3.451-1.418-6.899-3.656-6.899-8.059 0-3.324 2.419-7.168 8.256-7.168 3.741 0 6.603 1.94 7.337 2.501.37.223.474.86.22 1.231l-1.389 2.128c-.295.443-.851.744-1.288.443-.293-.183-3.084-2.048-5.097-2.048-2.093 0-3.232 1.42-3.232 2.613 0 1.757 1.356 2.948 4.33 4.179 3.557 1.46 7.67 3.624 7.67 8.44 0 3.843-3.268 7.39-8.445 7.39-4.619 0-7.333-2.202-8.066-2.909-.335-.34-.517-.524-.186-1.125M128.087.868c-1.947 0-3.464 1.544-3.464 3.524 0 1.858 1.36 3.318 3.093 3.318a3.91 3.91 0 0 0 1.044-.133c.004.05.004.095.004.149 0 2.039-1.576 2.713-1.781 2.73a1.33 1.33 0 0 0-.547.102.664.664 0 0 0-.378.602c0 .394.36.733.789.733 2.801 0 5.17-2.906 5.17-6.346 0-3.072-1.976-4.68-3.93-4.68" fill="#263645" mask="url(#mask-8)"></path></g></symbol></defs><use aria-hidden="true" xlink:href="#harrys-logo"></use></svg>