<svg xmlns:xlink="http://www.w3.org/1999/xlink" xmlns="http://www.w3.org/2000/svg" class="icon " viewBox="0 0 28 24" width="28"  height="24" ><defs><symbol xmlns="http://www.w3.org/2000/svg" viewBox="0 0 28 24" id="Help_Center_Icon_Transparent"><path d="M25.672 0C26.849 0 28 .713 28 2.144v19.692C28 23.001 27.067 24 25.687 24H2.184C1.389 24 0 23.42 0 21.823V2.156C0 1.279.533 0 2.174 0h23.498zm.67 7.713H1.725v14.506h24.617V7.713zM13.681 17.84c.602 0 1.08.482 1.08 1.088a1.074 1.074 0 0 1-2.145 0c0-.606.478-1.088 1.065-1.088zm.128-7.84c1.395 0 2.468.89 2.468 2.172 0 1.627-1.902 1.982-2.067 2.848l-.012.121v.5c0 .15-.088.241-.215.264l-.066.006h-.88a.273.273 0 0 1-.254-.209l-.008-.061v-.568c0-1.471 1.798-1.66 1.798-2.9 0-.554-.528-.851-1.16-.762-.945.133-.977.532-1.245.761-.094.083-.297-.062-.418-.162l-.046-.04-.443-.432c-.107-.094-.08-.243 0-.35 0 0 .845-1.189 2.548-1.189zm12.533-8.336H1.725V6.03h24.617V1.664zM7.292 3c.411 0 .745.336.745.75s-.334.75-.746.75a.748.748 0 0 1-.745-.75c0-.414.334-.75.745-.75zm-2.88 0c.412 0 .745.336.745.75s-.333.75-.745.75a.748.748 0 0 1-.745-.75c0-.414.333-.75.745-.75z"></path></symbol></defs><use aria-hidden="true" xlink:href="#Help_Center_Icon_Transparent" stroke="#263645" fill="#263645"></use></svg>