<svg xmlns:xlink="http://www.w3.org/1999/xlink" xmlns="http://www.w3.org/2000/svg" class="icon SocialIcon-sc-4wa0zt-2 kbUBrI" viewBox="0 0 21 18" width="24"  height="24" ><defs><symbol xmlns="http://www.w3.org/2000/svg" viewBox="0 0 21 18" id="Twitter_Footer_Icon"><path d="M20 2.894a8.314 8.314 0 0 1-2.357.636 4.063 4.063 0 0 0 1.804-2.235 8.308 8.308 0 0 1-2.605.98A4.129 4.129 0 0 0 13.847 1C11.58 1 9.744 2.808 9.744 5.04c0 .315.036.624.106.92a11.711 11.711 0 0 1-8.457-4.221 3.975 3.975 0 0 0-.556 2.03c0 1.402.724 2.639 1.825 3.363a4.132 4.132 0 0 1-1.858-.505v.05c0 1.958 1.413 3.59 3.291 3.961a4.172 4.172 0 0 1-1.853.07c.522 1.604 2.037 2.772 3.833 2.805a8.316 8.316 0 0 1-5.096 1.729c-.331 0-.658-.02-.979-.056A11.75 11.75 0 0 0 6.29 17c7.547 0 11.674-6.155 11.674-11.493 0-.175-.003-.349-.012-.523A8.251 8.251 0 0 0 20 2.894" stroke-width=".75" fill="none" fill-rule="evenodd"></path></symbol></defs><use aria-hidden="true" xlink:href="#Twitter_Footer_Icon" stroke="#263645" stroke-width="0.75px"></use></svg>