<svg xmlns:xlink="http://www.w3.org/1999/xlink" xmlns="http://www.w3.org/2000/svg" class="icon DollarRewardNavy-sc-1w0wjpg-13 iOOWvf" viewBox="0 0 15 20" width="15"  height="20" ><defs><symbol xmlns="http://www.w3.org/2000/svg" fill="none" viewBox="0 0 15 20" id="dollar-reward-navy"><path d="M5 9.81c.15.14.82.7 1.88.78v1.04c0 .15.15.18.26.18.11 0 .21-.06.21-.18v-1.04c1.2-.09 2.03-.84 2.03-1.88 0-1.2-.98-1.75-2.02-2.19 0-.73.01-1.47.01-2.2.51.12 1.02.46 1.08.49.24.16.42-.22.6-.48.09-.15.02-.29-.06-.34-.09-.06-.74-.5-1.62-.57v-.33a.19.19 0 0 0-.19-.19h-.1c-.1 0-.19.08-.19.19v.32c-1.28.13-1.86.95-1.93 1.66-.01.12-.02.24-.01.36.07 1.11.94 1.6 1.94 1.99 0 .76-.01 1.5-.01 2.26C6.2 9.55 5.6 9.05 5.55 9c-.11-.09-.23-.04-.31.07l-.29.42c-.11.17-.03.24.05.32zm1.88-3.49c-.62-.3-.96-.64-.96-1.15 0-.34.28-.8.96-.87v2.02zm.48 3.4V7.64c.64.33.97.68.97 1.16 0 .47-.42.85-.97.92z" fill="#263645"></path><path d="M14.286 7.151a7.144 7.144 0 1 0-12.143 5.093v7.05a.715.715 0 0 0 .393.636.713.713 0 0 0 .714-.057l3.865-2.857 3.864 2.857a.714.714 0 0 0 .714.057.714.714 0 0 0 .45-.636v-7.05a7.143 7.143 0 0 0 2.143-5.093zm-12.857 0a5.714 5.714 0 1 1 11.429 0 5.714 5.714 0 0 1-11.43 0zm9.286 10.715l-3.15-2.314a.714.714 0 0 0-.843 0l-3.15 2.314V13.33a7.093 7.093 0 0 0 7.143 0v4.536z" fill="#263645"></path></symbol></defs><use aria-hidden="true" xlink:href="#dollar-reward-navy"></use></svg>