<svg xmlns:xlink="http://www.w3.org/1999/xlink" xmlns="http://www.w3.org/2000/svg" class="icon " viewBox="0 0 32 30" width="32"  height="30" ><defs><symbol xmlns="http://www.w3.org/2000/svg" viewBox="0 0 32 30" id="new-cart"><g transform="translate(1 1)" stroke-width="1.75" fill="none" fill-rule="evenodd" stroke-linecap="round"><path d="M0 0h3.569a1 1 0 0 1 .956.707l1.192 3.894 3.767 11.708a1 1 0 0 0 .952.694h15.777a1 1 0 0 0 .972-.765l2.516-10.38a1 1 0 0 0-.972-1.236H5.717M10 17.25V20a1 1 0 0 0 1 1h16"></path><circle cx="13" cy="26" r="2"></circle><circle cx="24" cy="26" r="2"></circle></g></symbol></defs><use aria-hidden="true" xlink:href="#new-cart" stroke="#666666" fill="#666666"></use></svg>